G04 #@! TF.FileFunction,Soldermask,Top*
%FSLAX46Y46*%
G04 Gerber Fmt 4.6, Leading zero omitted, Abs format (unit mm)*
G04 Created by KiCad (PCBNEW 4.0.4+dfsg1-stable) date Sun Aug 27 23:53:47 2017*
%MOMM*%
%LPD*%
G01*
G04 APERTURE LIST*
%ADD10C,0.100000*%
%ADD11C,1.500000*%
%ADD12O,2.000000X1.400000*%
%ADD13R,1.600000X1.150000*%
%ADD14R,1.050000X1.460000*%
%ADD15R,2.432000X2.432000*%
%ADD16O,2.432000X2.432000*%
%ADD17R,1.300000X1.600000*%
%ADD18R,1.600000X1.300000*%
%ADD19R,0.650000X1.700000*%
%ADD20R,1.700000X0.650000*%
%ADD21R,1.150000X1.600000*%
%ADD22C,1.700000*%
%ADD23R,1.700000X1.700000*%
%ADD24R,0.800000X1.750000*%
%ADD25O,1.650000X1.350000*%
%ADD26O,1.400000X1.950000*%
%ADD27C,1.822400*%
%ADD28R,1.650000X1.900000*%
G04 APERTURE END LIST*
D10*
D11*
X117225000Y-100000000D03*
X118775000Y-100650000D03*
X117225000Y-101300000D03*
X118775000Y-99350000D03*
X117225000Y-98700000D03*
D12*
X118000000Y-95900000D03*
X118000000Y-104100000D03*
D13*
X109758520Y-121920000D03*
X107858520Y-121920000D03*
D14*
X105050000Y-84600000D03*
X106000000Y-84600000D03*
X106950000Y-84600000D03*
X106950000Y-82400000D03*
X105050000Y-82400000D03*
X96050000Y-84600000D03*
X97000000Y-84600000D03*
X97950000Y-84600000D03*
X97950000Y-82400000D03*
X96050000Y-82400000D03*
X123050000Y-84600000D03*
X124000000Y-84600000D03*
X124950000Y-84600000D03*
X124950000Y-82400000D03*
X123050000Y-82400000D03*
X114050000Y-84600000D03*
X115000000Y-84600000D03*
X115950000Y-84600000D03*
X115950000Y-82400000D03*
X114050000Y-82400000D03*
D15*
X99800000Y-137100000D03*
D16*
X97260000Y-137100000D03*
D17*
X126800000Y-82225000D03*
X126800000Y-84425000D03*
X117750000Y-82225000D03*
X117750000Y-84425000D03*
X121000000Y-128750000D03*
X121000000Y-126550000D03*
X108750000Y-82225000D03*
X108750000Y-84425000D03*
D18*
X120950000Y-130600000D03*
X118750000Y-130600000D03*
X116600000Y-129275000D03*
X114400000Y-129275000D03*
X109450000Y-131030000D03*
X107250000Y-131030000D03*
D17*
X124225000Y-126550000D03*
X124225000Y-128750000D03*
D18*
X112026880Y-108778040D03*
X109826880Y-108778040D03*
D17*
X99775000Y-82225000D03*
X99775000Y-84425000D03*
X122625000Y-128750000D03*
X122625000Y-126550000D03*
D18*
X126700000Y-118950000D03*
X124500000Y-118950000D03*
X111100000Y-125800000D03*
X113300000Y-125800000D03*
D19*
X120631400Y-115746280D03*
X120131400Y-115746280D03*
X119631400Y-115746280D03*
X119131400Y-115746280D03*
X118631400Y-115746280D03*
X118131400Y-115746280D03*
X117631400Y-115746280D03*
X117131400Y-115746280D03*
X116631400Y-115746280D03*
X116131400Y-115746280D03*
X115631400Y-115746280D03*
X115131400Y-115746280D03*
D20*
X113531400Y-117346280D03*
X113531400Y-117846280D03*
X113531400Y-118346280D03*
X113531400Y-118846280D03*
X113531400Y-119346280D03*
X113531400Y-119846280D03*
X113531400Y-120346280D03*
X113531400Y-120846280D03*
X113531400Y-121346280D03*
X113531400Y-121846280D03*
X113531400Y-122346280D03*
X113531400Y-122846280D03*
D19*
X115131400Y-124446280D03*
X115631400Y-124446280D03*
X116131400Y-124446280D03*
X116631400Y-124446280D03*
X117131400Y-124446280D03*
X117631400Y-124446280D03*
X118131400Y-124446280D03*
X118631400Y-124446280D03*
X119131400Y-124446280D03*
X119631400Y-124446280D03*
X120131400Y-124446280D03*
X120631400Y-124446280D03*
D20*
X122231400Y-122846280D03*
X122231400Y-122346280D03*
X122231400Y-121846280D03*
X122231400Y-121346280D03*
X122231400Y-120846280D03*
X122231400Y-120346280D03*
X122231400Y-119846280D03*
X122231400Y-119346280D03*
X122231400Y-118846280D03*
X122231400Y-118346280D03*
X122231400Y-117846280D03*
X122231400Y-117346280D03*
D11*
X105225000Y-100000000D03*
X106775000Y-100650000D03*
X105225000Y-101300000D03*
X106775000Y-99350000D03*
X105225000Y-98700000D03*
D12*
X106000000Y-95900000D03*
X106000000Y-104100000D03*
D11*
X99225000Y-100000000D03*
X100775000Y-100650000D03*
X99225000Y-101300000D03*
X100775000Y-99350000D03*
X99225000Y-98700000D03*
D12*
X100000000Y-95900000D03*
X100000000Y-104100000D03*
D11*
X111225000Y-100000000D03*
X112775000Y-100650000D03*
X111225000Y-101300000D03*
X112775000Y-99350000D03*
X111225000Y-98700000D03*
D12*
X112000000Y-95900000D03*
X112000000Y-104100000D03*
D11*
X123225000Y-100000000D03*
X124775000Y-100650000D03*
X123225000Y-101300000D03*
X124775000Y-99350000D03*
X123225000Y-98700000D03*
D12*
X124000000Y-95900000D03*
X124000000Y-104100000D03*
D21*
X124200000Y-122825000D03*
X124200000Y-124725000D03*
X119350000Y-126550000D03*
X119350000Y-128450000D03*
X117340380Y-112707460D03*
X117340380Y-110807460D03*
X122862340Y-114945200D03*
X122862340Y-113045200D03*
X109921040Y-118905060D03*
X109921040Y-117005060D03*
X108402120Y-118905060D03*
X108402120Y-117005060D03*
X113579440Y-114969020D03*
X113579440Y-113069020D03*
X112045280Y-114969020D03*
X112045280Y-113069020D03*
D13*
X97800000Y-80500000D03*
X99700000Y-80500000D03*
X98750000Y-106100000D03*
X100650000Y-106100000D03*
X109443590Y-132611730D03*
X107543590Y-132611730D03*
X115750000Y-80500000D03*
X117650000Y-80500000D03*
X104750000Y-106150000D03*
X106650000Y-106150000D03*
D21*
X106608880Y-116966960D03*
X106608880Y-118866960D03*
X106608880Y-114548960D03*
X106608880Y-112648960D03*
D13*
X106750000Y-80500000D03*
X108650000Y-80500000D03*
X110800000Y-106150000D03*
X112700000Y-106150000D03*
X124800000Y-80500000D03*
X126700000Y-80500000D03*
X116800000Y-106100000D03*
X118700000Y-106100000D03*
D22*
X125500000Y-90000000D03*
D23*
X123000000Y-90000000D03*
D22*
X98500000Y-90000000D03*
D23*
X96000000Y-90000000D03*
D22*
X107500000Y-90000000D03*
D23*
X105000000Y-90000000D03*
D22*
X116500000Y-90000000D03*
D23*
X114000000Y-90000000D03*
D24*
X109229100Y-137637460D03*
X109879100Y-137637460D03*
X110529100Y-137637460D03*
X111179100Y-137637460D03*
X111829100Y-137637460D03*
D25*
X108029100Y-137637460D03*
X113029100Y-137637460D03*
D26*
X107029100Y-140337460D03*
X114029100Y-140337460D03*
D27*
X102930960Y-113014760D03*
X102930960Y-118094760D03*
D28*
X124597160Y-115687160D03*
X124597160Y-113187160D03*
X126650000Y-113200000D03*
X126650000Y-115700000D03*
M02*
