M48
INCH,TZ
T1C0.013
T2C0.020
T3C0.022
T4C0.024
T5C0.028
T6C0.030
T7C0.031
T8C0.040
%
G90
G05
T1
X36417Y-50039
X36437Y-37028
X37402Y-50787
X37480Y-51516
X37598Y-49409
X37795Y-50787
X37992Y-49409
X38189Y-50787
X38297Y-53159
X38327Y-33898
X38366Y-42441
X38386Y-49409
X38583Y-50787
X38780Y-49409
X39242Y-53159
X39311Y-48031
X39518Y-51486
X39811Y-49331
X39843Y-31732
X40039Y-35984
X40148Y-51486
X40354Y-45551
X40453Y-33406
X40610Y-43701
X40787Y-47323
X40886Y-51486
X41142Y-42402
X41329Y-55335
X41358Y-45551
X41358Y-46890
X41467Y-54528
X41575Y-51486
X41654Y-51929
X41732Y-33878
X41791Y-48091
X42382Y-52756
X42690Y-49289
X42972Y-45610
X43012Y-33898
X43130Y-44350
X43150Y-42283
X43228Y-43268
X43307Y-31358
X43693Y-51862
X44094Y-43937
X44213Y-32303
X44232Y-48642
X44232Y-52461
X44476Y-50815
X44685Y-45906
X45264Y-49587
X45277Y-47641
X45384Y-48081
X45531Y-33917
X45807Y-46998
X45997Y-46080
X46201Y-43031
X46260Y-51417
X46535Y-50807
X46620Y-46081
X46890Y-31693
X47008Y-46063
X47008Y-46978
X47008Y-47953
X47205Y-34567
X47382Y-33287
X47421Y-43858
X47539Y-47028
X47717Y-35079
X47972Y-48976
X48386Y-43976
X48524Y-49213
X48858Y-33937
X48878Y-51260
X49055Y-43957
X49547Y-31280
X49803Y-52283
X49961Y-47362
X50600Y-53465
T4
X37783Y-36424
X37894Y-31791
X38622Y-37539
X41083Y-37343
X41398Y-31772
X44902Y-31772
X48484Y-31791
X48996Y-46280
X50453Y-47992
T5
X39065Y-38858
X39065Y-39370
X39065Y-39882
X39675Y-39114
X39675Y-39626
X41427Y-38858
X41427Y-39370
X41427Y-39882
X42037Y-39114
X42037Y-39626
X43789Y-38858
X43789Y-39370
X43789Y-39882
X44400Y-39114
X44400Y-39626
X46152Y-38858
X46152Y-39370
X46152Y-39882
X46762Y-39114
X46762Y-39626
X48514Y-38858
X48514Y-39370
X48514Y-39882
X49124Y-39114
X49124Y-39626
T6
X40524Y-44494
X40524Y-46494
T7
X37795Y-35433
X38780Y-35433
X41339Y-35433
X42323Y-35433
X44882Y-35433
X45866Y-35433
X48425Y-35433
X49409Y-35433
T8
X38291Y-53976
X39291Y-53976
T2
X42137Y-55379G85X42137Y-55123
G05
X44893Y-55379G85X44893Y-55123
G05
T3
X42472Y-54188G85X42590Y-54188
G05
X44441Y-54188G85X44559Y-54188
G05
T4
X39488Y-37756G85X39252Y-37756
G05
X39488Y-40984G85X39252Y-40984
G05
X41850Y-37756G85X41614Y-37756
G05
X41850Y-40984G85X41614Y-40984
G05
X44213Y-37756G85X43976Y-37756
G05
X44213Y-40984G85X43976Y-40984
G05
X46575Y-37756G85X46339Y-37756
G05
X46575Y-40984G85X46339Y-40984
G05
X48937Y-37756G85X48701Y-37756
G05
X48937Y-40984G85X48701Y-40984
G05
T0
M30
