G04 #@! TF.FileFunction,Soldermask,Bot*
%FSLAX46Y46*%
G04 Gerber Fmt 4.6, Leading zero omitted, Abs format (unit mm)*
G04 Created by KiCad (PCBNEW 4.0.4+dfsg1-stable) date Sun Aug 27 23:53:47 2017*
%MOMM*%
%LPD*%
G01*
G04 APERTURE LIST*
%ADD10C,0.100000*%
%ADD11C,1.500000*%
%ADD12O,2.000000X1.400000*%
%ADD13R,2.432000X2.432000*%
%ADD14O,2.432000X2.432000*%
%ADD15C,1.700000*%
%ADD16R,1.700000X1.700000*%
%ADD17O,1.650000X1.350000*%
%ADD18O,1.400000X1.950000*%
%ADD19C,1.822400*%
G04 APERTURE END LIST*
D10*
D11*
X117225000Y-100000000D03*
X118775000Y-100650000D03*
X117225000Y-101300000D03*
X118775000Y-99350000D03*
X117225000Y-98700000D03*
D12*
X118000000Y-95900000D03*
X118000000Y-104100000D03*
D13*
X99800000Y-137100000D03*
D14*
X97260000Y-137100000D03*
D11*
X105225000Y-100000000D03*
X106775000Y-100650000D03*
X105225000Y-101300000D03*
X106775000Y-99350000D03*
X105225000Y-98700000D03*
D12*
X106000000Y-95900000D03*
X106000000Y-104100000D03*
D11*
X99225000Y-100000000D03*
X100775000Y-100650000D03*
X99225000Y-101300000D03*
X100775000Y-99350000D03*
X99225000Y-98700000D03*
D12*
X100000000Y-95900000D03*
X100000000Y-104100000D03*
D11*
X111225000Y-100000000D03*
X112775000Y-100650000D03*
X111225000Y-101300000D03*
X112775000Y-99350000D03*
X111225000Y-98700000D03*
D12*
X112000000Y-95900000D03*
X112000000Y-104100000D03*
D11*
X123225000Y-100000000D03*
X124775000Y-100650000D03*
X123225000Y-101300000D03*
X124775000Y-99350000D03*
X123225000Y-98700000D03*
D12*
X124000000Y-95900000D03*
X124000000Y-104100000D03*
D15*
X125500000Y-90000000D03*
D16*
X123000000Y-90000000D03*
D15*
X98500000Y-90000000D03*
D16*
X96000000Y-90000000D03*
D15*
X107500000Y-90000000D03*
D16*
X105000000Y-90000000D03*
D15*
X116500000Y-90000000D03*
D16*
X114000000Y-90000000D03*
D17*
X108029100Y-137637460D03*
X113029100Y-137637460D03*
D18*
X107029100Y-140337460D03*
X114029100Y-140337460D03*
D19*
X102930960Y-113014760D03*
X102930960Y-118094760D03*
M02*
