G04 #@! TF.FileFunction,Legend,Top*
%FSLAX46Y46*%
G04 Gerber Fmt 4.6, Leading zero omitted, Abs format (unit mm)*
G04 Created by KiCad (PCBNEW 4.0.4+dfsg1-stable) date Sun Aug 27 23:53:47 2017*
%MOMM*%
%LPD*%
G01*
G04 APERTURE LIST*
%ADD10C,0.100000*%
%ADD11C,0.200000*%
%ADD12C,0.150000*%
G04 APERTURE END LIST*
D10*
D11*
X105000000Y-120500000D02*
X105750000Y-119750000D01*
X124500000Y-130750000D02*
X122750000Y-129750000D01*
X122500000Y-131000000D02*
X121750000Y-129500000D01*
D12*
X120100000Y-94875000D02*
X120100000Y-105125000D01*
X115900000Y-94875000D02*
X115900000Y-105125000D01*
X120100000Y-94875000D02*
X115900000Y-94875000D01*
X120100000Y-105125000D02*
X115900000Y-105125000D01*
X109158520Y-122520000D02*
X108458520Y-122520000D01*
X108458520Y-121320000D02*
X109158520Y-121320000D01*
X104400000Y-83800000D02*
G75*
G03X104400000Y-83800000I-100000J0D01*
G01*
X104550000Y-83250000D02*
X104550000Y-83750000D01*
X107450000Y-83250000D02*
X104550000Y-83250000D01*
X107450000Y-83750000D02*
X107450000Y-83250000D01*
X104550000Y-83750000D02*
X107450000Y-83750000D01*
X95400000Y-83800000D02*
G75*
G03X95400000Y-83800000I-100000J0D01*
G01*
X95550000Y-83250000D02*
X95550000Y-83750000D01*
X98450000Y-83250000D02*
X95550000Y-83250000D01*
X98450000Y-83750000D02*
X98450000Y-83250000D01*
X95550000Y-83750000D02*
X98450000Y-83750000D01*
X122400000Y-83800000D02*
G75*
G03X122400000Y-83800000I-100000J0D01*
G01*
X122550000Y-83250000D02*
X122550000Y-83750000D01*
X125450000Y-83250000D02*
X122550000Y-83250000D01*
X125450000Y-83750000D02*
X125450000Y-83250000D01*
X122550000Y-83750000D02*
X125450000Y-83750000D01*
X113400000Y-83800000D02*
G75*
G03X113400000Y-83800000I-100000J0D01*
G01*
X113550000Y-83250000D02*
X113550000Y-83750000D01*
X116450000Y-83250000D02*
X113550000Y-83250000D01*
X116450000Y-83750000D02*
X116450000Y-83250000D01*
X113550000Y-83750000D02*
X116450000Y-83750000D01*
X101350000Y-135800000D02*
X99800000Y-135800000D01*
X101350000Y-137100000D02*
X101350000Y-135800000D01*
X99927000Y-141291000D02*
X99927000Y-147133000D01*
X99927000Y-147133000D02*
X99673000Y-147133000D01*
X99673000Y-147133000D02*
X99673000Y-141291000D01*
X99673000Y-141291000D02*
X99800000Y-141291000D01*
X99800000Y-141291000D02*
X99800000Y-147133000D01*
X100054000Y-138624000D02*
X100054000Y-138243000D01*
X99546000Y-138624000D02*
X99546000Y-138243000D01*
X97514000Y-138624000D02*
X97514000Y-138243000D01*
X97006000Y-138624000D02*
X97006000Y-138243000D01*
X101070000Y-138624000D02*
X101070000Y-141164000D01*
X98530000Y-138624000D02*
X98530000Y-141164000D01*
X98530000Y-138624000D02*
X95990000Y-138624000D01*
X95990000Y-138624000D02*
X95990000Y-141164000D01*
X97514000Y-141164000D02*
X97514000Y-147260000D01*
X97514000Y-147260000D02*
X97006000Y-147260000D01*
X97006000Y-147260000D02*
X97006000Y-141164000D01*
X95990000Y-141164000D02*
X98530000Y-141164000D01*
X98530000Y-141164000D02*
X101070000Y-141164000D01*
X99546000Y-147260000D02*
X99546000Y-141164000D01*
X100054000Y-147260000D02*
X99546000Y-147260000D01*
X100054000Y-141164000D02*
X100054000Y-147260000D01*
X98530000Y-138624000D02*
X98530000Y-141164000D01*
X101070000Y-138624000D02*
X98530000Y-138624000D01*
X126125000Y-83825000D02*
X126125000Y-82825000D01*
X127475000Y-82825000D02*
X127475000Y-83825000D01*
X117075000Y-83825000D02*
X117075000Y-82825000D01*
X118425000Y-82825000D02*
X118425000Y-83825000D01*
X121675000Y-127150000D02*
X121675000Y-128150000D01*
X120325000Y-128150000D02*
X120325000Y-127150000D01*
X108075000Y-83825000D02*
X108075000Y-82825000D01*
X109425000Y-82825000D02*
X109425000Y-83825000D01*
X119350000Y-129925000D02*
X120350000Y-129925000D01*
X120350000Y-131275000D02*
X119350000Y-131275000D01*
X115000000Y-128600000D02*
X116000000Y-128600000D01*
X116000000Y-129950000D02*
X115000000Y-129950000D01*
X107850000Y-130355000D02*
X108850000Y-130355000D01*
X108850000Y-131705000D02*
X107850000Y-131705000D01*
X123550000Y-128150000D02*
X123550000Y-127150000D01*
X124900000Y-127150000D02*
X124900000Y-128150000D01*
X110426880Y-108103040D02*
X111426880Y-108103040D01*
X111426880Y-109453040D02*
X110426880Y-109453040D01*
X99100000Y-83825000D02*
X99100000Y-82825000D01*
X100450000Y-82825000D02*
X100450000Y-83825000D01*
X123300000Y-127150000D02*
X123300000Y-128150000D01*
X121950000Y-128150000D02*
X121950000Y-127150000D01*
X125100000Y-118275000D02*
X126100000Y-118275000D01*
X126100000Y-119625000D02*
X125100000Y-119625000D01*
X112700000Y-126475000D02*
X111700000Y-126475000D01*
X111700000Y-125125000D02*
X112700000Y-125125000D01*
X121506400Y-116471280D02*
X121081400Y-116471280D01*
X121506400Y-123721280D02*
X120981400Y-123721280D01*
X114256400Y-123721280D02*
X114781400Y-123721280D01*
X114256400Y-116471280D02*
X114781400Y-116471280D01*
X121506400Y-116471280D02*
X121506400Y-116996280D01*
X114256400Y-116471280D02*
X114256400Y-116996280D01*
X114256400Y-123721280D02*
X114256400Y-123196280D01*
X121506400Y-123721280D02*
X121506400Y-123196280D01*
X121081400Y-116471280D02*
X121081400Y-115096280D01*
X108100000Y-94875000D02*
X108100000Y-105125000D01*
X103900000Y-94875000D02*
X103900000Y-105125000D01*
X108100000Y-94875000D02*
X103900000Y-94875000D01*
X108100000Y-105125000D02*
X103900000Y-105125000D01*
X102100000Y-94875000D02*
X102100000Y-105125000D01*
X97900000Y-94875000D02*
X97900000Y-105125000D01*
X102100000Y-94875000D02*
X97900000Y-94875000D01*
X102100000Y-105125000D02*
X97900000Y-105125000D01*
X114100000Y-94875000D02*
X114100000Y-105125000D01*
X109900000Y-94875000D02*
X109900000Y-105125000D01*
X114100000Y-94875000D02*
X109900000Y-94875000D01*
X114100000Y-105125000D02*
X109900000Y-105125000D01*
X126100000Y-94875000D02*
X126100000Y-105125000D01*
X121900000Y-94875000D02*
X121900000Y-105125000D01*
X126100000Y-94875000D02*
X121900000Y-94875000D01*
X126100000Y-105125000D02*
X121900000Y-105125000D01*
X124800000Y-123425000D02*
X124800000Y-124125000D01*
X123600000Y-124125000D02*
X123600000Y-123425000D01*
X119950000Y-127150000D02*
X119950000Y-127850000D01*
X118750000Y-127850000D02*
X118750000Y-127150000D01*
X116740380Y-112107460D02*
X116740380Y-111407460D01*
X117940380Y-111407460D02*
X117940380Y-112107460D01*
X122262340Y-114345200D02*
X122262340Y-113645200D01*
X123462340Y-113645200D02*
X123462340Y-114345200D01*
X109321040Y-118305060D02*
X109321040Y-117605060D01*
X110521040Y-117605060D02*
X110521040Y-118305060D01*
X107802120Y-118305060D02*
X107802120Y-117605060D01*
X109002120Y-117605060D02*
X109002120Y-118305060D01*
X112979440Y-114369020D02*
X112979440Y-113669020D01*
X114179440Y-113669020D02*
X114179440Y-114369020D01*
X111445280Y-114369020D02*
X111445280Y-113669020D01*
X112645280Y-113669020D02*
X112645280Y-114369020D01*
X98400000Y-79900000D02*
X99100000Y-79900000D01*
X99100000Y-81100000D02*
X98400000Y-81100000D01*
X99350000Y-105500000D02*
X100050000Y-105500000D01*
X100050000Y-106700000D02*
X99350000Y-106700000D01*
X108843590Y-133211730D02*
X108143590Y-133211730D01*
X108143590Y-132011730D02*
X108843590Y-132011730D01*
X116350000Y-79900000D02*
X117050000Y-79900000D01*
X117050000Y-81100000D02*
X116350000Y-81100000D01*
X105350000Y-105550000D02*
X106050000Y-105550000D01*
X106050000Y-106750000D02*
X105350000Y-106750000D01*
X107208880Y-117566960D02*
X107208880Y-118266960D01*
X106008880Y-118266960D02*
X106008880Y-117566960D01*
X106008880Y-113948960D02*
X106008880Y-113248960D01*
X107208880Y-113248960D02*
X107208880Y-113948960D01*
X107350000Y-79900000D02*
X108050000Y-79900000D01*
X108050000Y-81100000D02*
X107350000Y-81100000D01*
X111400000Y-105550000D02*
X112100000Y-105550000D01*
X112100000Y-106750000D02*
X111400000Y-106750000D01*
X125400000Y-79900000D02*
X126100000Y-79900000D01*
X126100000Y-81100000D02*
X125400000Y-81100000D01*
X117400000Y-105500000D02*
X118100000Y-105500000D01*
X118100000Y-106700000D02*
X117400000Y-106700000D01*
X124990000Y-92270000D02*
X124990000Y-92260000D01*
X124990000Y-91630000D02*
X124990000Y-92270000D01*
X124880000Y-90830000D02*
X124990000Y-91630000D01*
X124890000Y-93860000D02*
X124880000Y-90830000D01*
X124740000Y-94000000D02*
X124890000Y-93860000D01*
X124740000Y-90770000D02*
X124740000Y-94000000D01*
X124600000Y-90510000D02*
X124740000Y-90770000D01*
X124590000Y-94030000D02*
X124600000Y-90510000D01*
X124880000Y-89120000D02*
X124880000Y-89140000D01*
X124880000Y-86120000D02*
X124880000Y-89120000D01*
X124730000Y-86060000D02*
X124880000Y-86120000D01*
X124740000Y-89290000D02*
X124730000Y-86060000D01*
X124610000Y-89480000D02*
X124740000Y-89290000D01*
X124600000Y-86010000D02*
X124610000Y-89480000D01*
X124325000Y-86001000D02*
X124325000Y-93999000D01*
X124465000Y-86006000D02*
X124465000Y-93994000D01*
X125025000Y-86076000D02*
X125030000Y-89130000D01*
X125050000Y-90900000D02*
X125025000Y-93924000D01*
X125165000Y-86106000D02*
X125170000Y-89070000D01*
X125150000Y-90950000D02*
X125165000Y-93894000D01*
X125305000Y-86142000D02*
X125310000Y-88960000D01*
X125300000Y-90980000D02*
X125305000Y-93858000D01*
X125445000Y-86183000D02*
X125450000Y-89000000D01*
X125430000Y-91010000D02*
X125445000Y-93817000D01*
X125585000Y-86229000D02*
X125590000Y-88960000D01*
X125570000Y-91010000D02*
X125585000Y-93771000D01*
X125725000Y-86282000D02*
X125725000Y-89039000D01*
X125720000Y-91020000D02*
X125725000Y-93718000D01*
X125865000Y-86341000D02*
X125865000Y-89009000D01*
X125865000Y-90991000D02*
X125865000Y-93659000D01*
X126005000Y-86406000D02*
X126000000Y-89120000D01*
X126000000Y-90880000D02*
X126005000Y-93594000D01*
X126145000Y-86477000D02*
X126130000Y-89170000D01*
X126150000Y-90800000D02*
X126145000Y-93523000D01*
X126285000Y-86556000D02*
X126280000Y-89330000D01*
X126300000Y-90630000D02*
X126285000Y-93444000D01*
X126425000Y-86643000D02*
X126430000Y-89560000D01*
X126430000Y-90420000D02*
X126425000Y-93357000D01*
X126565000Y-86738000D02*
X126565000Y-89175000D01*
X126570000Y-89200000D02*
X126565000Y-93262000D01*
X126705000Y-86842000D02*
X126705000Y-89291000D01*
X126710000Y-89320000D02*
X126705000Y-93158000D01*
X126845000Y-86956000D02*
X126850000Y-90560000D01*
X126845000Y-90535000D02*
X126845000Y-93044000D01*
X126985000Y-87081000D02*
X126985000Y-89827000D01*
X126980000Y-89790000D02*
X126985000Y-92919000D01*
X127125000Y-87219000D02*
X127125000Y-92781000D01*
X127265000Y-87371000D02*
X127265000Y-92629000D01*
X127405000Y-87541000D02*
X127405000Y-92459000D01*
X127545000Y-87732000D02*
X127545000Y-92268000D01*
X127685000Y-87950000D02*
X127685000Y-92050000D01*
X127825000Y-88206000D02*
X127825000Y-91794000D01*
X127965000Y-88517000D02*
X127965000Y-91483000D01*
X128080000Y-88850000D02*
X128090000Y-91150000D01*
X128200000Y-89330000D02*
X128220000Y-90620000D01*
X126500000Y-90000000D02*
G75*
G03X126500000Y-90000000I-1000000J0D01*
G01*
X128287500Y-90000000D02*
G75*
G03X128287500Y-90000000I-4037500J0D01*
G01*
X97990000Y-92270000D02*
X97990000Y-92260000D01*
X97990000Y-91630000D02*
X97990000Y-92270000D01*
X97880000Y-90830000D02*
X97990000Y-91630000D01*
X97890000Y-93860000D02*
X97880000Y-90830000D01*
X97740000Y-94000000D02*
X97890000Y-93860000D01*
X97740000Y-90770000D02*
X97740000Y-94000000D01*
X97600000Y-90510000D02*
X97740000Y-90770000D01*
X97590000Y-94030000D02*
X97600000Y-90510000D01*
X97880000Y-89120000D02*
X97880000Y-89140000D01*
X97880000Y-86120000D02*
X97880000Y-89120000D01*
X97730000Y-86060000D02*
X97880000Y-86120000D01*
X97740000Y-89290000D02*
X97730000Y-86060000D01*
X97610000Y-89480000D02*
X97740000Y-89290000D01*
X97600000Y-86010000D02*
X97610000Y-89480000D01*
X97325000Y-86001000D02*
X97325000Y-93999000D01*
X97465000Y-86006000D02*
X97465000Y-93994000D01*
X98025000Y-86076000D02*
X98030000Y-89130000D01*
X98050000Y-90900000D02*
X98025000Y-93924000D01*
X98165000Y-86106000D02*
X98170000Y-89070000D01*
X98150000Y-90950000D02*
X98165000Y-93894000D01*
X98305000Y-86142000D02*
X98310000Y-88960000D01*
X98300000Y-90980000D02*
X98305000Y-93858000D01*
X98445000Y-86183000D02*
X98450000Y-89000000D01*
X98430000Y-91010000D02*
X98445000Y-93817000D01*
X98585000Y-86229000D02*
X98590000Y-88960000D01*
X98570000Y-91010000D02*
X98585000Y-93771000D01*
X98725000Y-86282000D02*
X98725000Y-89039000D01*
X98720000Y-91020000D02*
X98725000Y-93718000D01*
X98865000Y-86341000D02*
X98865000Y-89009000D01*
X98865000Y-90991000D02*
X98865000Y-93659000D01*
X99005000Y-86406000D02*
X99000000Y-89120000D01*
X99000000Y-90880000D02*
X99005000Y-93594000D01*
X99145000Y-86477000D02*
X99130000Y-89170000D01*
X99150000Y-90800000D02*
X99145000Y-93523000D01*
X99285000Y-86556000D02*
X99280000Y-89330000D01*
X99300000Y-90630000D02*
X99285000Y-93444000D01*
X99425000Y-86643000D02*
X99430000Y-89560000D01*
X99430000Y-90420000D02*
X99425000Y-93357000D01*
X99565000Y-86738000D02*
X99565000Y-89175000D01*
X99570000Y-89200000D02*
X99565000Y-93262000D01*
X99705000Y-86842000D02*
X99705000Y-89291000D01*
X99710000Y-89320000D02*
X99705000Y-93158000D01*
X99845000Y-86956000D02*
X99850000Y-90560000D01*
X99845000Y-90535000D02*
X99845000Y-93044000D01*
X99985000Y-87081000D02*
X99985000Y-89827000D01*
X99980000Y-89790000D02*
X99985000Y-92919000D01*
X100125000Y-87219000D02*
X100125000Y-92781000D01*
X100265000Y-87371000D02*
X100265000Y-92629000D01*
X100405000Y-87541000D02*
X100405000Y-92459000D01*
X100545000Y-87732000D02*
X100545000Y-92268000D01*
X100685000Y-87950000D02*
X100685000Y-92050000D01*
X100825000Y-88206000D02*
X100825000Y-91794000D01*
X100965000Y-88517000D02*
X100965000Y-91483000D01*
X101080000Y-88850000D02*
X101090000Y-91150000D01*
X101200000Y-89330000D02*
X101220000Y-90620000D01*
X99500000Y-90000000D02*
G75*
G03X99500000Y-90000000I-1000000J0D01*
G01*
X101287500Y-90000000D02*
G75*
G03X101287500Y-90000000I-4037500J0D01*
G01*
X106990000Y-92270000D02*
X106990000Y-92260000D01*
X106990000Y-91630000D02*
X106990000Y-92270000D01*
X106880000Y-90830000D02*
X106990000Y-91630000D01*
X106890000Y-93860000D02*
X106880000Y-90830000D01*
X106740000Y-94000000D02*
X106890000Y-93860000D01*
X106740000Y-90770000D02*
X106740000Y-94000000D01*
X106600000Y-90510000D02*
X106740000Y-90770000D01*
X106590000Y-94030000D02*
X106600000Y-90510000D01*
X106880000Y-89120000D02*
X106880000Y-89140000D01*
X106880000Y-86120000D02*
X106880000Y-89120000D01*
X106730000Y-86060000D02*
X106880000Y-86120000D01*
X106740000Y-89290000D02*
X106730000Y-86060000D01*
X106610000Y-89480000D02*
X106740000Y-89290000D01*
X106600000Y-86010000D02*
X106610000Y-89480000D01*
X106325000Y-86001000D02*
X106325000Y-93999000D01*
X106465000Y-86006000D02*
X106465000Y-93994000D01*
X107025000Y-86076000D02*
X107030000Y-89130000D01*
X107050000Y-90900000D02*
X107025000Y-93924000D01*
X107165000Y-86106000D02*
X107170000Y-89070000D01*
X107150000Y-90950000D02*
X107165000Y-93894000D01*
X107305000Y-86142000D02*
X107310000Y-88960000D01*
X107300000Y-90980000D02*
X107305000Y-93858000D01*
X107445000Y-86183000D02*
X107450000Y-89000000D01*
X107430000Y-91010000D02*
X107445000Y-93817000D01*
X107585000Y-86229000D02*
X107590000Y-88960000D01*
X107570000Y-91010000D02*
X107585000Y-93771000D01*
X107725000Y-86282000D02*
X107725000Y-89039000D01*
X107720000Y-91020000D02*
X107725000Y-93718000D01*
X107865000Y-86341000D02*
X107865000Y-89009000D01*
X107865000Y-90991000D02*
X107865000Y-93659000D01*
X108005000Y-86406000D02*
X108000000Y-89120000D01*
X108000000Y-90880000D02*
X108005000Y-93594000D01*
X108145000Y-86477000D02*
X108130000Y-89170000D01*
X108150000Y-90800000D02*
X108145000Y-93523000D01*
X108285000Y-86556000D02*
X108280000Y-89330000D01*
X108300000Y-90630000D02*
X108285000Y-93444000D01*
X108425000Y-86643000D02*
X108430000Y-89560000D01*
X108430000Y-90420000D02*
X108425000Y-93357000D01*
X108565000Y-86738000D02*
X108565000Y-89175000D01*
X108570000Y-89200000D02*
X108565000Y-93262000D01*
X108705000Y-86842000D02*
X108705000Y-89291000D01*
X108710000Y-89320000D02*
X108705000Y-93158000D01*
X108845000Y-86956000D02*
X108850000Y-90560000D01*
X108845000Y-90535000D02*
X108845000Y-93044000D01*
X108985000Y-87081000D02*
X108985000Y-89827000D01*
X108980000Y-89790000D02*
X108985000Y-92919000D01*
X109125000Y-87219000D02*
X109125000Y-92781000D01*
X109265000Y-87371000D02*
X109265000Y-92629000D01*
X109405000Y-87541000D02*
X109405000Y-92459000D01*
X109545000Y-87732000D02*
X109545000Y-92268000D01*
X109685000Y-87950000D02*
X109685000Y-92050000D01*
X109825000Y-88206000D02*
X109825000Y-91794000D01*
X109965000Y-88517000D02*
X109965000Y-91483000D01*
X110080000Y-88850000D02*
X110090000Y-91150000D01*
X110200000Y-89330000D02*
X110220000Y-90620000D01*
X108500000Y-90000000D02*
G75*
G03X108500000Y-90000000I-1000000J0D01*
G01*
X110287500Y-90000000D02*
G75*
G03X110287500Y-90000000I-4037500J0D01*
G01*
X115990000Y-92270000D02*
X115990000Y-92260000D01*
X115990000Y-91630000D02*
X115990000Y-92270000D01*
X115880000Y-90830000D02*
X115990000Y-91630000D01*
X115890000Y-93860000D02*
X115880000Y-90830000D01*
X115740000Y-94000000D02*
X115890000Y-93860000D01*
X115740000Y-90770000D02*
X115740000Y-94000000D01*
X115600000Y-90510000D02*
X115740000Y-90770000D01*
X115590000Y-94030000D02*
X115600000Y-90510000D01*
X115880000Y-89120000D02*
X115880000Y-89140000D01*
X115880000Y-86120000D02*
X115880000Y-89120000D01*
X115730000Y-86060000D02*
X115880000Y-86120000D01*
X115740000Y-89290000D02*
X115730000Y-86060000D01*
X115610000Y-89480000D02*
X115740000Y-89290000D01*
X115600000Y-86010000D02*
X115610000Y-89480000D01*
X115325000Y-86001000D02*
X115325000Y-93999000D01*
X115465000Y-86006000D02*
X115465000Y-93994000D01*
X116025000Y-86076000D02*
X116030000Y-89130000D01*
X116050000Y-90900000D02*
X116025000Y-93924000D01*
X116165000Y-86106000D02*
X116170000Y-89070000D01*
X116150000Y-90950000D02*
X116165000Y-93894000D01*
X116305000Y-86142000D02*
X116310000Y-88960000D01*
X116300000Y-90980000D02*
X116305000Y-93858000D01*
X116445000Y-86183000D02*
X116450000Y-89000000D01*
X116430000Y-91010000D02*
X116445000Y-93817000D01*
X116585000Y-86229000D02*
X116590000Y-88960000D01*
X116570000Y-91010000D02*
X116585000Y-93771000D01*
X116725000Y-86282000D02*
X116725000Y-89039000D01*
X116720000Y-91020000D02*
X116725000Y-93718000D01*
X116865000Y-86341000D02*
X116865000Y-89009000D01*
X116865000Y-90991000D02*
X116865000Y-93659000D01*
X117005000Y-86406000D02*
X117000000Y-89120000D01*
X117000000Y-90880000D02*
X117005000Y-93594000D01*
X117145000Y-86477000D02*
X117130000Y-89170000D01*
X117150000Y-90800000D02*
X117145000Y-93523000D01*
X117285000Y-86556000D02*
X117280000Y-89330000D01*
X117300000Y-90630000D02*
X117285000Y-93444000D01*
X117425000Y-86643000D02*
X117430000Y-89560000D01*
X117430000Y-90420000D02*
X117425000Y-93357000D01*
X117565000Y-86738000D02*
X117565000Y-89175000D01*
X117570000Y-89200000D02*
X117565000Y-93262000D01*
X117705000Y-86842000D02*
X117705000Y-89291000D01*
X117710000Y-89320000D02*
X117705000Y-93158000D01*
X117845000Y-86956000D02*
X117850000Y-90560000D01*
X117845000Y-90535000D02*
X117845000Y-93044000D01*
X117985000Y-87081000D02*
X117985000Y-89827000D01*
X117980000Y-89790000D02*
X117985000Y-92919000D01*
X118125000Y-87219000D02*
X118125000Y-92781000D01*
X118265000Y-87371000D02*
X118265000Y-92629000D01*
X118405000Y-87541000D02*
X118405000Y-92459000D01*
X118545000Y-87732000D02*
X118545000Y-92268000D01*
X118685000Y-87950000D02*
X118685000Y-92050000D01*
X118825000Y-88206000D02*
X118825000Y-91794000D01*
X118965000Y-88517000D02*
X118965000Y-91483000D01*
X119080000Y-88850000D02*
X119090000Y-91150000D01*
X119200000Y-89330000D02*
X119220000Y-90620000D01*
X117500000Y-90000000D02*
G75*
G03X117500000Y-90000000I-1000000J0D01*
G01*
X119287500Y-90000000D02*
G75*
G03X119287500Y-90000000I-4037500J0D01*
G01*
X106179100Y-143017460D02*
X114879100Y-143017460D01*
X106179100Y-136612460D02*
X114879100Y-136612460D01*
X114879100Y-136612460D02*
X114879100Y-143017460D01*
X114879100Y-141787460D02*
X106179100Y-141787460D01*
X106179100Y-143017460D02*
X106179100Y-136612460D01*
X100644960Y-118348760D02*
G75*
G03X105216960Y-118348760I2286000J0D01*
G01*
X105216960Y-112760760D02*
G75*
G03X100644960Y-112760760I-2286000J0D01*
G01*
X100644960Y-112760760D02*
X100644960Y-118348760D01*
X105216960Y-112760760D02*
X105216960Y-118348760D01*
X123747160Y-113937160D02*
X123747160Y-114937160D01*
X125447160Y-114937160D02*
X125447160Y-113937160D01*
X127500000Y-114950000D02*
X127500000Y-113950000D01*
X125800000Y-113950000D02*
X125800000Y-114950000D01*
X114261905Y-95952381D02*
X114261905Y-94952381D01*
X114642858Y-94952381D01*
X114738096Y-95000000D01*
X114785715Y-95047619D01*
X114833334Y-95142857D01*
X114833334Y-95285714D01*
X114785715Y-95380952D01*
X114738096Y-95428571D01*
X114642858Y-95476190D01*
X114261905Y-95476190D01*
X115214286Y-95047619D02*
X115261905Y-95000000D01*
X115357143Y-94952381D01*
X115595239Y-94952381D01*
X115690477Y-95000000D01*
X115738096Y-95047619D01*
X115785715Y-95142857D01*
X115785715Y-95238095D01*
X115738096Y-95380952D01*
X115166667Y-95952381D01*
X115785715Y-95952381D01*
X108165663Y-123857143D02*
X108118044Y-123904762D01*
X107975187Y-123952381D01*
X107879949Y-123952381D01*
X107737091Y-123904762D01*
X107641853Y-123809524D01*
X107594234Y-123714286D01*
X107546615Y-123523810D01*
X107546615Y-123380952D01*
X107594234Y-123190476D01*
X107641853Y-123095238D01*
X107737091Y-123000000D01*
X107879949Y-122952381D01*
X107975187Y-122952381D01*
X108118044Y-123000000D01*
X108165663Y-123047619D01*
X108546615Y-123047619D02*
X108594234Y-123000000D01*
X108689472Y-122952381D01*
X108927568Y-122952381D01*
X109022806Y-123000000D01*
X109070425Y-123047619D01*
X109118044Y-123142857D01*
X109118044Y-123238095D01*
X109070425Y-123380952D01*
X108498996Y-123952381D01*
X109118044Y-123952381D01*
X109451377Y-122952381D02*
X110070425Y-122952381D01*
X109737091Y-123333333D01*
X109879949Y-123333333D01*
X109975187Y-123380952D01*
X110022806Y-123428571D01*
X110070425Y-123523810D01*
X110070425Y-123761905D01*
X110022806Y-123857143D01*
X109975187Y-123904762D01*
X109879949Y-123952381D01*
X109594234Y-123952381D01*
X109498996Y-123904762D01*
X109451377Y-123857143D01*
X102688095Y-83002381D02*
X102688095Y-83811905D01*
X102735714Y-83907143D01*
X102783333Y-83954762D01*
X102878571Y-84002381D01*
X103069048Y-84002381D01*
X103164286Y-83954762D01*
X103211905Y-83907143D01*
X103259524Y-83811905D01*
X103259524Y-83002381D01*
X104164286Y-83335714D02*
X104164286Y-84002381D01*
X103926190Y-82954762D02*
X103688095Y-83669048D01*
X104307143Y-83669048D01*
X93688095Y-83002381D02*
X93688095Y-83811905D01*
X93735714Y-83907143D01*
X93783333Y-83954762D01*
X93878571Y-84002381D01*
X94069048Y-84002381D01*
X94164286Y-83954762D01*
X94211905Y-83907143D01*
X94259524Y-83811905D01*
X94259524Y-83002381D01*
X95211905Y-83002381D02*
X94735714Y-83002381D01*
X94688095Y-83478571D01*
X94735714Y-83430952D01*
X94830952Y-83383333D01*
X95069048Y-83383333D01*
X95164286Y-83430952D01*
X95211905Y-83478571D01*
X95259524Y-83573810D01*
X95259524Y-83811905D01*
X95211905Y-83907143D01*
X95164286Y-83954762D01*
X95069048Y-84002381D01*
X94830952Y-84002381D01*
X94735714Y-83954762D01*
X94688095Y-83907143D01*
X120688095Y-83002381D02*
X120688095Y-83811905D01*
X120735714Y-83907143D01*
X120783333Y-83954762D01*
X120878571Y-84002381D01*
X121069048Y-84002381D01*
X121164286Y-83954762D01*
X121211905Y-83907143D01*
X121259524Y-83811905D01*
X121259524Y-83002381D01*
X121688095Y-83097619D02*
X121735714Y-83050000D01*
X121830952Y-83002381D01*
X122069048Y-83002381D01*
X122164286Y-83050000D01*
X122211905Y-83097619D01*
X122259524Y-83192857D01*
X122259524Y-83288095D01*
X122211905Y-83430952D01*
X121640476Y-84002381D01*
X122259524Y-84002381D01*
X111688095Y-83002381D02*
X111688095Y-83811905D01*
X111735714Y-83907143D01*
X111783333Y-83954762D01*
X111878571Y-84002381D01*
X112069048Y-84002381D01*
X112164286Y-83954762D01*
X112211905Y-83907143D01*
X112259524Y-83811905D01*
X112259524Y-83002381D01*
X112640476Y-83002381D02*
X113259524Y-83002381D01*
X112926190Y-83383333D01*
X113069048Y-83383333D01*
X113164286Y-83430952D01*
X113211905Y-83478571D01*
X113259524Y-83573810D01*
X113259524Y-83811905D01*
X113211905Y-83907143D01*
X113164286Y-83954762D01*
X113069048Y-84002381D01*
X112783333Y-84002381D01*
X112688095Y-83954762D01*
X112640476Y-83907143D01*
X105352381Y-137838095D02*
X104352381Y-137838095D01*
X104352381Y-137457142D01*
X104400000Y-137361904D01*
X104447619Y-137314285D01*
X104542857Y-137266666D01*
X104685714Y-137266666D01*
X104780952Y-137314285D01*
X104828571Y-137361904D01*
X104876190Y-137457142D01*
X104876190Y-137838095D01*
X104352381Y-136933333D02*
X104352381Y-136266666D01*
X105352381Y-136695238D01*
X128333334Y-82202381D02*
X128000000Y-81726190D01*
X127761905Y-82202381D02*
X127761905Y-81202381D01*
X128142858Y-81202381D01*
X128238096Y-81250000D01*
X128285715Y-81297619D01*
X128333334Y-81392857D01*
X128333334Y-81535714D01*
X128285715Y-81630952D01*
X128238096Y-81678571D01*
X128142858Y-81726190D01*
X127761905Y-81726190D01*
X129285715Y-82202381D02*
X128714286Y-82202381D01*
X129000000Y-82202381D02*
X129000000Y-81202381D01*
X128904762Y-81345238D01*
X128809524Y-81440476D01*
X128714286Y-81488095D01*
X119333334Y-82452381D02*
X119000000Y-81976190D01*
X118761905Y-82452381D02*
X118761905Y-81452381D01*
X119142858Y-81452381D01*
X119238096Y-81500000D01*
X119285715Y-81547619D01*
X119333334Y-81642857D01*
X119333334Y-81785714D01*
X119285715Y-81880952D01*
X119238096Y-81928571D01*
X119142858Y-81976190D01*
X118761905Y-81976190D01*
X119714286Y-81547619D02*
X119761905Y-81500000D01*
X119857143Y-81452381D01*
X120095239Y-81452381D01*
X120190477Y-81500000D01*
X120238096Y-81547619D01*
X120285715Y-81642857D01*
X120285715Y-81738095D01*
X120238096Y-81880952D01*
X119666667Y-82452381D01*
X120285715Y-82452381D01*
X122333334Y-132202381D02*
X122000000Y-131726190D01*
X121761905Y-132202381D02*
X121761905Y-131202381D01*
X122142858Y-131202381D01*
X122238096Y-131250000D01*
X122285715Y-131297619D01*
X122333334Y-131392857D01*
X122333334Y-131535714D01*
X122285715Y-131630952D01*
X122238096Y-131678571D01*
X122142858Y-131726190D01*
X121761905Y-131726190D01*
X122666667Y-131202381D02*
X123285715Y-131202381D01*
X122952381Y-131583333D01*
X123095239Y-131583333D01*
X123190477Y-131630952D01*
X123238096Y-131678571D01*
X123285715Y-131773810D01*
X123285715Y-132011905D01*
X123238096Y-132107143D01*
X123190477Y-132154762D01*
X123095239Y-132202381D01*
X122809524Y-132202381D01*
X122714286Y-132154762D01*
X122666667Y-132107143D01*
X110333334Y-82452381D02*
X110000000Y-81976190D01*
X109761905Y-82452381D02*
X109761905Y-81452381D01*
X110142858Y-81452381D01*
X110238096Y-81500000D01*
X110285715Y-81547619D01*
X110333334Y-81642857D01*
X110333334Y-81785714D01*
X110285715Y-81880952D01*
X110238096Y-81928571D01*
X110142858Y-81976190D01*
X109761905Y-81976190D01*
X111190477Y-81785714D02*
X111190477Y-82452381D01*
X110952381Y-81404762D02*
X110714286Y-82119048D01*
X111333334Y-82119048D01*
X119683334Y-132952381D02*
X119350000Y-132476190D01*
X119111905Y-132952381D02*
X119111905Y-131952381D01*
X119492858Y-131952381D01*
X119588096Y-132000000D01*
X119635715Y-132047619D01*
X119683334Y-132142857D01*
X119683334Y-132285714D01*
X119635715Y-132380952D01*
X119588096Y-132428571D01*
X119492858Y-132476190D01*
X119111905Y-132476190D01*
X120588096Y-131952381D02*
X120111905Y-131952381D01*
X120064286Y-132428571D01*
X120111905Y-132380952D01*
X120207143Y-132333333D01*
X120445239Y-132333333D01*
X120540477Y-132380952D01*
X120588096Y-132428571D01*
X120635715Y-132523810D01*
X120635715Y-132761905D01*
X120588096Y-132857143D01*
X120540477Y-132904762D01*
X120445239Y-132952381D01*
X120207143Y-132952381D01*
X120111905Y-132904762D01*
X120064286Y-132857143D01*
X115333334Y-131627381D02*
X115000000Y-131151190D01*
X114761905Y-131627381D02*
X114761905Y-130627381D01*
X115142858Y-130627381D01*
X115238096Y-130675000D01*
X115285715Y-130722619D01*
X115333334Y-130817857D01*
X115333334Y-130960714D01*
X115285715Y-131055952D01*
X115238096Y-131103571D01*
X115142858Y-131151190D01*
X114761905Y-131151190D01*
X116190477Y-130627381D02*
X116000000Y-130627381D01*
X115904762Y-130675000D01*
X115857143Y-130722619D01*
X115761905Y-130865476D01*
X115714286Y-131055952D01*
X115714286Y-131436905D01*
X115761905Y-131532143D01*
X115809524Y-131579762D01*
X115904762Y-131627381D01*
X116095239Y-131627381D01*
X116190477Y-131579762D01*
X116238096Y-131532143D01*
X116285715Y-131436905D01*
X116285715Y-131198810D01*
X116238096Y-131103571D01*
X116190477Y-131055952D01*
X116095239Y-131008333D01*
X115904762Y-131008333D01*
X115809524Y-131055952D01*
X115761905Y-131103571D01*
X115714286Y-131198810D01*
X108183334Y-133382381D02*
X107850000Y-132906190D01*
X107611905Y-133382381D02*
X107611905Y-132382381D01*
X107992858Y-132382381D01*
X108088096Y-132430000D01*
X108135715Y-132477619D01*
X108183334Y-132572857D01*
X108183334Y-132715714D01*
X108135715Y-132810952D01*
X108088096Y-132858571D01*
X107992858Y-132906190D01*
X107611905Y-132906190D01*
X108516667Y-132382381D02*
X109183334Y-132382381D01*
X108754762Y-133382381D01*
X125833334Y-127702381D02*
X125500000Y-127226190D01*
X125261905Y-127702381D02*
X125261905Y-126702381D01*
X125642858Y-126702381D01*
X125738096Y-126750000D01*
X125785715Y-126797619D01*
X125833334Y-126892857D01*
X125833334Y-127035714D01*
X125785715Y-127130952D01*
X125738096Y-127178571D01*
X125642858Y-127226190D01*
X125261905Y-127226190D01*
X126404762Y-127130952D02*
X126309524Y-127083333D01*
X126261905Y-127035714D01*
X126214286Y-126940476D01*
X126214286Y-126892857D01*
X126261905Y-126797619D01*
X126309524Y-126750000D01*
X126404762Y-126702381D01*
X126595239Y-126702381D01*
X126690477Y-126750000D01*
X126738096Y-126797619D01*
X126785715Y-126892857D01*
X126785715Y-126940476D01*
X126738096Y-127035714D01*
X126690477Y-127083333D01*
X126595239Y-127130952D01*
X126404762Y-127130952D01*
X126309524Y-127178571D01*
X126261905Y-127226190D01*
X126214286Y-127321429D01*
X126214286Y-127511905D01*
X126261905Y-127607143D01*
X126309524Y-127654762D01*
X126404762Y-127702381D01*
X126595239Y-127702381D01*
X126690477Y-127654762D01*
X126738096Y-127607143D01*
X126785715Y-127511905D01*
X126785715Y-127321429D01*
X126738096Y-127226190D01*
X126690477Y-127178571D01*
X126595239Y-127130952D01*
X107583334Y-109452381D02*
X107250000Y-108976190D01*
X107011905Y-109452381D02*
X107011905Y-108452381D01*
X107392858Y-108452381D01*
X107488096Y-108500000D01*
X107535715Y-108547619D01*
X107583334Y-108642857D01*
X107583334Y-108785714D01*
X107535715Y-108880952D01*
X107488096Y-108928571D01*
X107392858Y-108976190D01*
X107011905Y-108976190D01*
X108059524Y-109452381D02*
X108250000Y-109452381D01*
X108345239Y-109404762D01*
X108392858Y-109357143D01*
X108488096Y-109214286D01*
X108535715Y-109023810D01*
X108535715Y-108642857D01*
X108488096Y-108547619D01*
X108440477Y-108500000D01*
X108345239Y-108452381D01*
X108154762Y-108452381D01*
X108059524Y-108500000D01*
X108011905Y-108547619D01*
X107964286Y-108642857D01*
X107964286Y-108880952D01*
X108011905Y-108976190D01*
X108059524Y-109023810D01*
X108154762Y-109071429D01*
X108345239Y-109071429D01*
X108440477Y-109023810D01*
X108488096Y-108976190D01*
X108535715Y-108880952D01*
X101107143Y-82452381D02*
X100773809Y-81976190D01*
X100535714Y-82452381D02*
X100535714Y-81452381D01*
X100916667Y-81452381D01*
X101011905Y-81500000D01*
X101059524Y-81547619D01*
X101107143Y-81642857D01*
X101107143Y-81785714D01*
X101059524Y-81880952D01*
X101011905Y-81928571D01*
X100916667Y-81976190D01*
X100535714Y-81976190D01*
X102059524Y-82452381D02*
X101488095Y-82452381D01*
X101773809Y-82452381D02*
X101773809Y-81452381D01*
X101678571Y-81595238D01*
X101583333Y-81690476D01*
X101488095Y-81738095D01*
X102678571Y-81452381D02*
X102773810Y-81452381D01*
X102869048Y-81500000D01*
X102916667Y-81547619D01*
X102964286Y-81642857D01*
X103011905Y-81833333D01*
X103011905Y-82071429D01*
X102964286Y-82261905D01*
X102916667Y-82357143D01*
X102869048Y-82404762D01*
X102773810Y-82452381D01*
X102678571Y-82452381D01*
X102583333Y-82404762D01*
X102535714Y-82357143D01*
X102488095Y-82261905D01*
X102440476Y-82071429D01*
X102440476Y-81833333D01*
X102488095Y-81642857D01*
X102535714Y-81547619D01*
X102583333Y-81500000D01*
X102678571Y-81452381D01*
X124357143Y-132202381D02*
X124023809Y-131726190D01*
X123785714Y-132202381D02*
X123785714Y-131202381D01*
X124166667Y-131202381D01*
X124261905Y-131250000D01*
X124309524Y-131297619D01*
X124357143Y-131392857D01*
X124357143Y-131535714D01*
X124309524Y-131630952D01*
X124261905Y-131678571D01*
X124166667Y-131726190D01*
X123785714Y-131726190D01*
X125309524Y-132202381D02*
X124738095Y-132202381D01*
X125023809Y-132202381D02*
X125023809Y-131202381D01*
X124928571Y-131345238D01*
X124833333Y-131440476D01*
X124738095Y-131488095D01*
X126261905Y-132202381D02*
X125690476Y-132202381D01*
X125976190Y-132202381D02*
X125976190Y-131202381D01*
X125880952Y-131345238D01*
X125785714Y-131440476D01*
X125690476Y-131488095D01*
X124957143Y-121302381D02*
X124623809Y-120826190D01*
X124385714Y-121302381D02*
X124385714Y-120302381D01*
X124766667Y-120302381D01*
X124861905Y-120350000D01*
X124909524Y-120397619D01*
X124957143Y-120492857D01*
X124957143Y-120635714D01*
X124909524Y-120730952D01*
X124861905Y-120778571D01*
X124766667Y-120826190D01*
X124385714Y-120826190D01*
X125909524Y-121302381D02*
X125338095Y-121302381D01*
X125623809Y-121302381D02*
X125623809Y-120302381D01*
X125528571Y-120445238D01*
X125433333Y-120540476D01*
X125338095Y-120588095D01*
X126290476Y-120397619D02*
X126338095Y-120350000D01*
X126433333Y-120302381D01*
X126671429Y-120302381D01*
X126766667Y-120350000D01*
X126814286Y-120397619D01*
X126861905Y-120492857D01*
X126861905Y-120588095D01*
X126814286Y-120730952D01*
X126242857Y-121302381D01*
X126861905Y-121302381D01*
X111607143Y-127952381D02*
X111273809Y-127476190D01*
X111035714Y-127952381D02*
X111035714Y-126952381D01*
X111416667Y-126952381D01*
X111511905Y-127000000D01*
X111559524Y-127047619D01*
X111607143Y-127142857D01*
X111607143Y-127285714D01*
X111559524Y-127380952D01*
X111511905Y-127428571D01*
X111416667Y-127476190D01*
X111035714Y-127476190D01*
X112559524Y-127952381D02*
X111988095Y-127952381D01*
X112273809Y-127952381D02*
X112273809Y-126952381D01*
X112178571Y-127095238D01*
X112083333Y-127190476D01*
X111988095Y-127238095D01*
X112892857Y-126952381D02*
X113511905Y-126952381D01*
X113178571Y-127333333D01*
X113321429Y-127333333D01*
X113416667Y-127380952D01*
X113464286Y-127428571D01*
X113511905Y-127523810D01*
X113511905Y-127761905D01*
X113464286Y-127857143D01*
X113416667Y-127904762D01*
X113321429Y-127952381D01*
X113035714Y-127952381D01*
X112940476Y-127904762D01*
X112892857Y-127857143D01*
X123333781Y-120858185D02*
X124143305Y-120858185D01*
X124238543Y-120810566D01*
X124286162Y-120762947D01*
X124333781Y-120667709D01*
X124333781Y-120477232D01*
X124286162Y-120381994D01*
X124238543Y-120334375D01*
X124143305Y-120286756D01*
X123333781Y-120286756D01*
X124333781Y-119286756D02*
X124333781Y-119858185D01*
X124333781Y-119572471D02*
X123333781Y-119572471D01*
X123476638Y-119667709D01*
X123571876Y-119762947D01*
X123619495Y-119858185D01*
X102261905Y-95952381D02*
X102261905Y-94952381D01*
X102642858Y-94952381D01*
X102738096Y-95000000D01*
X102785715Y-95047619D01*
X102833334Y-95142857D01*
X102833334Y-95285714D01*
X102785715Y-95380952D01*
X102738096Y-95428571D01*
X102642858Y-95476190D01*
X102261905Y-95476190D01*
X103690477Y-95285714D02*
X103690477Y-95952381D01*
X103452381Y-94904762D02*
X103214286Y-95619048D01*
X103833334Y-95619048D01*
X95761905Y-95952381D02*
X95761905Y-94952381D01*
X96142858Y-94952381D01*
X96238096Y-95000000D01*
X96285715Y-95047619D01*
X96333334Y-95142857D01*
X96333334Y-95285714D01*
X96285715Y-95380952D01*
X96238096Y-95428571D01*
X96142858Y-95476190D01*
X95761905Y-95476190D01*
X97238096Y-94952381D02*
X96761905Y-94952381D01*
X96714286Y-95428571D01*
X96761905Y-95380952D01*
X96857143Y-95333333D01*
X97095239Y-95333333D01*
X97190477Y-95380952D01*
X97238096Y-95428571D01*
X97285715Y-95523810D01*
X97285715Y-95761905D01*
X97238096Y-95857143D01*
X97190477Y-95904762D01*
X97095239Y-95952381D01*
X96857143Y-95952381D01*
X96761905Y-95904762D01*
X96714286Y-95857143D01*
X108261905Y-95952381D02*
X108261905Y-94952381D01*
X108642858Y-94952381D01*
X108738096Y-95000000D01*
X108785715Y-95047619D01*
X108833334Y-95142857D01*
X108833334Y-95285714D01*
X108785715Y-95380952D01*
X108738096Y-95428571D01*
X108642858Y-95476190D01*
X108261905Y-95476190D01*
X109166667Y-94952381D02*
X109785715Y-94952381D01*
X109452381Y-95333333D01*
X109595239Y-95333333D01*
X109690477Y-95380952D01*
X109738096Y-95428571D01*
X109785715Y-95523810D01*
X109785715Y-95761905D01*
X109738096Y-95857143D01*
X109690477Y-95904762D01*
X109595239Y-95952381D01*
X109309524Y-95952381D01*
X109214286Y-95904762D01*
X109166667Y-95857143D01*
X120261905Y-95952381D02*
X120261905Y-94952381D01*
X120642858Y-94952381D01*
X120738096Y-95000000D01*
X120785715Y-95047619D01*
X120833334Y-95142857D01*
X120833334Y-95285714D01*
X120785715Y-95380952D01*
X120738096Y-95428571D01*
X120642858Y-95476190D01*
X120261905Y-95476190D01*
X121785715Y-95952381D02*
X121214286Y-95952381D01*
X121500000Y-95952381D02*
X121500000Y-94952381D01*
X121404762Y-95095238D01*
X121309524Y-95190476D01*
X121214286Y-95238095D01*
X125607143Y-124132143D02*
X125559524Y-124179762D01*
X125416667Y-124227381D01*
X125321429Y-124227381D01*
X125178571Y-124179762D01*
X125083333Y-124084524D01*
X125035714Y-123989286D01*
X124988095Y-123798810D01*
X124988095Y-123655952D01*
X125035714Y-123465476D01*
X125083333Y-123370238D01*
X125178571Y-123275000D01*
X125321429Y-123227381D01*
X125416667Y-123227381D01*
X125559524Y-123275000D01*
X125607143Y-123322619D01*
X125988095Y-123322619D02*
X126035714Y-123275000D01*
X126130952Y-123227381D01*
X126369048Y-123227381D01*
X126464286Y-123275000D01*
X126511905Y-123322619D01*
X126559524Y-123417857D01*
X126559524Y-123513095D01*
X126511905Y-123655952D01*
X125940476Y-124227381D01*
X126559524Y-124227381D01*
X127464286Y-123227381D02*
X126988095Y-123227381D01*
X126940476Y-123703571D01*
X126988095Y-123655952D01*
X127083333Y-123608333D01*
X127321429Y-123608333D01*
X127416667Y-123655952D01*
X127464286Y-123703571D01*
X127511905Y-123798810D01*
X127511905Y-124036905D01*
X127464286Y-124132143D01*
X127416667Y-124179762D01*
X127321429Y-124227381D01*
X127083333Y-124227381D01*
X126988095Y-124179762D01*
X126940476Y-124132143D01*
X116607143Y-127107143D02*
X116559524Y-127154762D01*
X116416667Y-127202381D01*
X116321429Y-127202381D01*
X116178571Y-127154762D01*
X116083333Y-127059524D01*
X116035714Y-126964286D01*
X115988095Y-126773810D01*
X115988095Y-126630952D01*
X116035714Y-126440476D01*
X116083333Y-126345238D01*
X116178571Y-126250000D01*
X116321429Y-126202381D01*
X116416667Y-126202381D01*
X116559524Y-126250000D01*
X116607143Y-126297619D01*
X116988095Y-126297619D02*
X117035714Y-126250000D01*
X117130952Y-126202381D01*
X117369048Y-126202381D01*
X117464286Y-126250000D01*
X117511905Y-126297619D01*
X117559524Y-126392857D01*
X117559524Y-126488095D01*
X117511905Y-126630952D01*
X116940476Y-127202381D01*
X117559524Y-127202381D01*
X118416667Y-126535714D02*
X118416667Y-127202381D01*
X118178571Y-126154762D02*
X117940476Y-126869048D01*
X118559524Y-126869048D01*
X118607143Y-110857143D02*
X118559524Y-110904762D01*
X118416667Y-110952381D01*
X118321429Y-110952381D01*
X118178571Y-110904762D01*
X118083333Y-110809524D01*
X118035714Y-110714286D01*
X117988095Y-110523810D01*
X117988095Y-110380952D01*
X118035714Y-110190476D01*
X118083333Y-110095238D01*
X118178571Y-110000000D01*
X118321429Y-109952381D01*
X118416667Y-109952381D01*
X118559524Y-110000000D01*
X118607143Y-110047619D01*
X118988095Y-110047619D02*
X119035714Y-110000000D01*
X119130952Y-109952381D01*
X119369048Y-109952381D01*
X119464286Y-110000000D01*
X119511905Y-110047619D01*
X119559524Y-110142857D01*
X119559524Y-110238095D01*
X119511905Y-110380952D01*
X118940476Y-110952381D01*
X119559524Y-110952381D01*
X119940476Y-110047619D02*
X119988095Y-110000000D01*
X120083333Y-109952381D01*
X120321429Y-109952381D01*
X120416667Y-110000000D01*
X120464286Y-110047619D01*
X120511905Y-110142857D01*
X120511905Y-110238095D01*
X120464286Y-110380952D01*
X119892857Y-110952381D01*
X120511905Y-110952381D01*
X120357143Y-113357143D02*
X120309524Y-113404762D01*
X120166667Y-113452381D01*
X120071429Y-113452381D01*
X119928571Y-113404762D01*
X119833333Y-113309524D01*
X119785714Y-113214286D01*
X119738095Y-113023810D01*
X119738095Y-112880952D01*
X119785714Y-112690476D01*
X119833333Y-112595238D01*
X119928571Y-112500000D01*
X120071429Y-112452381D01*
X120166667Y-112452381D01*
X120309524Y-112500000D01*
X120357143Y-112547619D01*
X120738095Y-112547619D02*
X120785714Y-112500000D01*
X120880952Y-112452381D01*
X121119048Y-112452381D01*
X121214286Y-112500000D01*
X121261905Y-112547619D01*
X121309524Y-112642857D01*
X121309524Y-112738095D01*
X121261905Y-112880952D01*
X120690476Y-113452381D01*
X121309524Y-113452381D01*
X122261905Y-113452381D02*
X121690476Y-113452381D01*
X121976190Y-113452381D02*
X121976190Y-112452381D01*
X121880952Y-112595238D01*
X121785714Y-112690476D01*
X121690476Y-112738095D01*
X110107143Y-120857143D02*
X110059524Y-120904762D01*
X109916667Y-120952381D01*
X109821429Y-120952381D01*
X109678571Y-120904762D01*
X109583333Y-120809524D01*
X109535714Y-120714286D01*
X109488095Y-120523810D01*
X109488095Y-120380952D01*
X109535714Y-120190476D01*
X109583333Y-120095238D01*
X109678571Y-120000000D01*
X109821429Y-119952381D01*
X109916667Y-119952381D01*
X110059524Y-120000000D01*
X110107143Y-120047619D01*
X110488095Y-120047619D02*
X110535714Y-120000000D01*
X110630952Y-119952381D01*
X110869048Y-119952381D01*
X110964286Y-120000000D01*
X111011905Y-120047619D01*
X111059524Y-120142857D01*
X111059524Y-120238095D01*
X111011905Y-120380952D01*
X110440476Y-120952381D01*
X111059524Y-120952381D01*
X111678571Y-119952381D02*
X111773810Y-119952381D01*
X111869048Y-120000000D01*
X111916667Y-120047619D01*
X111964286Y-120142857D01*
X112011905Y-120333333D01*
X112011905Y-120571429D01*
X111964286Y-120761905D01*
X111916667Y-120857143D01*
X111869048Y-120904762D01*
X111773810Y-120952381D01*
X111678571Y-120952381D01*
X111583333Y-120904762D01*
X111535714Y-120857143D01*
X111488095Y-120761905D01*
X111440476Y-120571429D01*
X111440476Y-120333333D01*
X111488095Y-120142857D01*
X111535714Y-120047619D01*
X111583333Y-120000000D01*
X111678571Y-119952381D01*
X107107143Y-120857143D02*
X107059524Y-120904762D01*
X106916667Y-120952381D01*
X106821429Y-120952381D01*
X106678571Y-120904762D01*
X106583333Y-120809524D01*
X106535714Y-120714286D01*
X106488095Y-120523810D01*
X106488095Y-120380952D01*
X106535714Y-120190476D01*
X106583333Y-120095238D01*
X106678571Y-120000000D01*
X106821429Y-119952381D01*
X106916667Y-119952381D01*
X107059524Y-120000000D01*
X107107143Y-120047619D01*
X108059524Y-120952381D02*
X107488095Y-120952381D01*
X107773809Y-120952381D02*
X107773809Y-119952381D01*
X107678571Y-120095238D01*
X107583333Y-120190476D01*
X107488095Y-120238095D01*
X108535714Y-120952381D02*
X108726190Y-120952381D01*
X108821429Y-120904762D01*
X108869048Y-120857143D01*
X108964286Y-120714286D01*
X109011905Y-120523810D01*
X109011905Y-120142857D01*
X108964286Y-120047619D01*
X108916667Y-120000000D01*
X108821429Y-119952381D01*
X108630952Y-119952381D01*
X108535714Y-120000000D01*
X108488095Y-120047619D01*
X108440476Y-120142857D01*
X108440476Y-120380952D01*
X108488095Y-120476190D01*
X108535714Y-120523810D01*
X108630952Y-120571429D01*
X108821429Y-120571429D01*
X108916667Y-120523810D01*
X108964286Y-120476190D01*
X109011905Y-120380952D01*
X115057143Y-115182143D02*
X115009524Y-115229762D01*
X114866667Y-115277381D01*
X114771429Y-115277381D01*
X114628571Y-115229762D01*
X114533333Y-115134524D01*
X114485714Y-115039286D01*
X114438095Y-114848810D01*
X114438095Y-114705952D01*
X114485714Y-114515476D01*
X114533333Y-114420238D01*
X114628571Y-114325000D01*
X114771429Y-114277381D01*
X114866667Y-114277381D01*
X115009524Y-114325000D01*
X115057143Y-114372619D01*
X116009524Y-115277381D02*
X115438095Y-115277381D01*
X115723809Y-115277381D02*
X115723809Y-114277381D01*
X115628571Y-114420238D01*
X115533333Y-114515476D01*
X115438095Y-114563095D01*
X116580952Y-114705952D02*
X116485714Y-114658333D01*
X116438095Y-114610714D01*
X116390476Y-114515476D01*
X116390476Y-114467857D01*
X116438095Y-114372619D01*
X116485714Y-114325000D01*
X116580952Y-114277381D01*
X116771429Y-114277381D01*
X116866667Y-114325000D01*
X116914286Y-114372619D01*
X116961905Y-114467857D01*
X116961905Y-114515476D01*
X116914286Y-114610714D01*
X116866667Y-114658333D01*
X116771429Y-114705952D01*
X116580952Y-114705952D01*
X116485714Y-114753571D01*
X116438095Y-114801190D01*
X116390476Y-114896429D01*
X116390476Y-115086905D01*
X116438095Y-115182143D01*
X116485714Y-115229762D01*
X116580952Y-115277381D01*
X116771429Y-115277381D01*
X116866667Y-115229762D01*
X116914286Y-115182143D01*
X116961905Y-115086905D01*
X116961905Y-114896429D01*
X116914286Y-114801190D01*
X116866667Y-114753571D01*
X116771429Y-114705952D01*
X109057143Y-114682143D02*
X109009524Y-114729762D01*
X108866667Y-114777381D01*
X108771429Y-114777381D01*
X108628571Y-114729762D01*
X108533333Y-114634524D01*
X108485714Y-114539286D01*
X108438095Y-114348810D01*
X108438095Y-114205952D01*
X108485714Y-114015476D01*
X108533333Y-113920238D01*
X108628571Y-113825000D01*
X108771429Y-113777381D01*
X108866667Y-113777381D01*
X109009524Y-113825000D01*
X109057143Y-113872619D01*
X110009524Y-114777381D02*
X109438095Y-114777381D01*
X109723809Y-114777381D02*
X109723809Y-113777381D01*
X109628571Y-113920238D01*
X109533333Y-114015476D01*
X109438095Y-114063095D01*
X110342857Y-113777381D02*
X111009524Y-113777381D01*
X110580952Y-114777381D01*
X98107143Y-78957143D02*
X98059524Y-79004762D01*
X97916667Y-79052381D01*
X97821429Y-79052381D01*
X97678571Y-79004762D01*
X97583333Y-78909524D01*
X97535714Y-78814286D01*
X97488095Y-78623810D01*
X97488095Y-78480952D01*
X97535714Y-78290476D01*
X97583333Y-78195238D01*
X97678571Y-78100000D01*
X97821429Y-78052381D01*
X97916667Y-78052381D01*
X98059524Y-78100000D01*
X98107143Y-78147619D01*
X99059524Y-79052381D02*
X98488095Y-79052381D01*
X98773809Y-79052381D02*
X98773809Y-78052381D01*
X98678571Y-78195238D01*
X98583333Y-78290476D01*
X98488095Y-78338095D01*
X99916667Y-78052381D02*
X99726190Y-78052381D01*
X99630952Y-78100000D01*
X99583333Y-78147619D01*
X99488095Y-78290476D01*
X99440476Y-78480952D01*
X99440476Y-78861905D01*
X99488095Y-78957143D01*
X99535714Y-79004762D01*
X99630952Y-79052381D01*
X99821429Y-79052381D01*
X99916667Y-79004762D01*
X99964286Y-78957143D01*
X100011905Y-78861905D01*
X100011905Y-78623810D01*
X99964286Y-78528571D01*
X99916667Y-78480952D01*
X99821429Y-78433333D01*
X99630952Y-78433333D01*
X99535714Y-78480952D01*
X99488095Y-78528571D01*
X99440476Y-78623810D01*
X99057143Y-107857143D02*
X99009524Y-107904762D01*
X98866667Y-107952381D01*
X98771429Y-107952381D01*
X98628571Y-107904762D01*
X98533333Y-107809524D01*
X98485714Y-107714286D01*
X98438095Y-107523810D01*
X98438095Y-107380952D01*
X98485714Y-107190476D01*
X98533333Y-107095238D01*
X98628571Y-107000000D01*
X98771429Y-106952381D01*
X98866667Y-106952381D01*
X99009524Y-107000000D01*
X99057143Y-107047619D01*
X100009524Y-107952381D02*
X99438095Y-107952381D01*
X99723809Y-107952381D02*
X99723809Y-106952381D01*
X99628571Y-107095238D01*
X99533333Y-107190476D01*
X99438095Y-107238095D01*
X100914286Y-106952381D02*
X100438095Y-106952381D01*
X100390476Y-107428571D01*
X100438095Y-107380952D01*
X100533333Y-107333333D01*
X100771429Y-107333333D01*
X100866667Y-107380952D01*
X100914286Y-107428571D01*
X100961905Y-107523810D01*
X100961905Y-107761905D01*
X100914286Y-107857143D01*
X100866667Y-107904762D01*
X100771429Y-107952381D01*
X100533333Y-107952381D01*
X100438095Y-107904762D01*
X100390476Y-107857143D01*
X107850733Y-134868873D02*
X107803114Y-134916492D01*
X107660257Y-134964111D01*
X107565019Y-134964111D01*
X107422161Y-134916492D01*
X107326923Y-134821254D01*
X107279304Y-134726016D01*
X107231685Y-134535540D01*
X107231685Y-134392682D01*
X107279304Y-134202206D01*
X107326923Y-134106968D01*
X107422161Y-134011730D01*
X107565019Y-133964111D01*
X107660257Y-133964111D01*
X107803114Y-134011730D01*
X107850733Y-134059349D01*
X108803114Y-134964111D02*
X108231685Y-134964111D01*
X108517399Y-134964111D02*
X108517399Y-133964111D01*
X108422161Y-134106968D01*
X108326923Y-134202206D01*
X108231685Y-134249825D01*
X109136447Y-133964111D02*
X109755495Y-133964111D01*
X109422161Y-134345063D01*
X109565019Y-134345063D01*
X109660257Y-134392682D01*
X109707876Y-134440301D01*
X109755495Y-134535540D01*
X109755495Y-134773635D01*
X109707876Y-134868873D01*
X109660257Y-134916492D01*
X109565019Y-134964111D01*
X109279304Y-134964111D01*
X109184066Y-134916492D01*
X109136447Y-134868873D01*
X116057143Y-78957143D02*
X116009524Y-79004762D01*
X115866667Y-79052381D01*
X115771429Y-79052381D01*
X115628571Y-79004762D01*
X115533333Y-78909524D01*
X115485714Y-78814286D01*
X115438095Y-78623810D01*
X115438095Y-78480952D01*
X115485714Y-78290476D01*
X115533333Y-78195238D01*
X115628571Y-78100000D01*
X115771429Y-78052381D01*
X115866667Y-78052381D01*
X116009524Y-78100000D01*
X116057143Y-78147619D01*
X117009524Y-79052381D02*
X116438095Y-79052381D01*
X116723809Y-79052381D02*
X116723809Y-78052381D01*
X116628571Y-78195238D01*
X116533333Y-78290476D01*
X116438095Y-78338095D01*
X117390476Y-78147619D02*
X117438095Y-78100000D01*
X117533333Y-78052381D01*
X117771429Y-78052381D01*
X117866667Y-78100000D01*
X117914286Y-78147619D01*
X117961905Y-78242857D01*
X117961905Y-78338095D01*
X117914286Y-78480952D01*
X117342857Y-79052381D01*
X117961905Y-79052381D01*
X105607143Y-107857143D02*
X105559524Y-107904762D01*
X105416667Y-107952381D01*
X105321429Y-107952381D01*
X105178571Y-107904762D01*
X105083333Y-107809524D01*
X105035714Y-107714286D01*
X104988095Y-107523810D01*
X104988095Y-107380952D01*
X105035714Y-107190476D01*
X105083333Y-107095238D01*
X105178571Y-107000000D01*
X105321429Y-106952381D01*
X105416667Y-106952381D01*
X105559524Y-107000000D01*
X105607143Y-107047619D01*
X106559524Y-107952381D02*
X105988095Y-107952381D01*
X106273809Y-107952381D02*
X106273809Y-106952381D01*
X106178571Y-107095238D01*
X106083333Y-107190476D01*
X105988095Y-107238095D01*
X107511905Y-107952381D02*
X106940476Y-107952381D01*
X107226190Y-107952381D02*
X107226190Y-106952381D01*
X107130952Y-107095238D01*
X107035714Y-107190476D01*
X106940476Y-107238095D01*
X104583334Y-121607143D02*
X104535715Y-121654762D01*
X104392858Y-121702381D01*
X104297620Y-121702381D01*
X104154762Y-121654762D01*
X104059524Y-121559524D01*
X104011905Y-121464286D01*
X103964286Y-121273810D01*
X103964286Y-121130952D01*
X104011905Y-120940476D01*
X104059524Y-120845238D01*
X104154762Y-120750000D01*
X104297620Y-120702381D01*
X104392858Y-120702381D01*
X104535715Y-120750000D01*
X104583334Y-120797619D01*
X105059524Y-121702381D02*
X105250000Y-121702381D01*
X105345239Y-121654762D01*
X105392858Y-121607143D01*
X105488096Y-121464286D01*
X105535715Y-121273810D01*
X105535715Y-120892857D01*
X105488096Y-120797619D01*
X105440477Y-120750000D01*
X105345239Y-120702381D01*
X105154762Y-120702381D01*
X105059524Y-120750000D01*
X105011905Y-120797619D01*
X104964286Y-120892857D01*
X104964286Y-121130952D01*
X105011905Y-121226190D01*
X105059524Y-121273810D01*
X105154762Y-121321429D01*
X105345239Y-121321429D01*
X105440477Y-121273810D01*
X105488096Y-121226190D01*
X105535715Y-121130952D01*
X106583334Y-111607143D02*
X106535715Y-111654762D01*
X106392858Y-111702381D01*
X106297620Y-111702381D01*
X106154762Y-111654762D01*
X106059524Y-111559524D01*
X106011905Y-111464286D01*
X105964286Y-111273810D01*
X105964286Y-111130952D01*
X106011905Y-110940476D01*
X106059524Y-110845238D01*
X106154762Y-110750000D01*
X106297620Y-110702381D01*
X106392858Y-110702381D01*
X106535715Y-110750000D01*
X106583334Y-110797619D01*
X107154762Y-111130952D02*
X107059524Y-111083333D01*
X107011905Y-111035714D01*
X106964286Y-110940476D01*
X106964286Y-110892857D01*
X107011905Y-110797619D01*
X107059524Y-110750000D01*
X107154762Y-110702381D01*
X107345239Y-110702381D01*
X107440477Y-110750000D01*
X107488096Y-110797619D01*
X107535715Y-110892857D01*
X107535715Y-110940476D01*
X107488096Y-111035714D01*
X107440477Y-111083333D01*
X107345239Y-111130952D01*
X107154762Y-111130952D01*
X107059524Y-111178571D01*
X107011905Y-111226190D01*
X106964286Y-111321429D01*
X106964286Y-111511905D01*
X107011905Y-111607143D01*
X107059524Y-111654762D01*
X107154762Y-111702381D01*
X107345239Y-111702381D01*
X107440477Y-111654762D01*
X107488096Y-111607143D01*
X107535715Y-111511905D01*
X107535715Y-111321429D01*
X107488096Y-111226190D01*
X107440477Y-111178571D01*
X107345239Y-111130952D01*
X107533334Y-78957143D02*
X107485715Y-79004762D01*
X107342858Y-79052381D01*
X107247620Y-79052381D01*
X107104762Y-79004762D01*
X107009524Y-78909524D01*
X106961905Y-78814286D01*
X106914286Y-78623810D01*
X106914286Y-78480952D01*
X106961905Y-78290476D01*
X107009524Y-78195238D01*
X107104762Y-78100000D01*
X107247620Y-78052381D01*
X107342858Y-78052381D01*
X107485715Y-78100000D01*
X107533334Y-78147619D01*
X108390477Y-78052381D02*
X108200000Y-78052381D01*
X108104762Y-78100000D01*
X108057143Y-78147619D01*
X107961905Y-78290476D01*
X107914286Y-78480952D01*
X107914286Y-78861905D01*
X107961905Y-78957143D01*
X108009524Y-79004762D01*
X108104762Y-79052381D01*
X108295239Y-79052381D01*
X108390477Y-79004762D01*
X108438096Y-78957143D01*
X108485715Y-78861905D01*
X108485715Y-78623810D01*
X108438096Y-78528571D01*
X108390477Y-78480952D01*
X108295239Y-78433333D01*
X108104762Y-78433333D01*
X108009524Y-78480952D01*
X107961905Y-78528571D01*
X107914286Y-78623810D01*
X111583334Y-107857143D02*
X111535715Y-107904762D01*
X111392858Y-107952381D01*
X111297620Y-107952381D01*
X111154762Y-107904762D01*
X111059524Y-107809524D01*
X111011905Y-107714286D01*
X110964286Y-107523810D01*
X110964286Y-107380952D01*
X111011905Y-107190476D01*
X111059524Y-107095238D01*
X111154762Y-107000000D01*
X111297620Y-106952381D01*
X111392858Y-106952381D01*
X111535715Y-107000000D01*
X111583334Y-107047619D01*
X112488096Y-106952381D02*
X112011905Y-106952381D01*
X111964286Y-107428571D01*
X112011905Y-107380952D01*
X112107143Y-107333333D01*
X112345239Y-107333333D01*
X112440477Y-107380952D01*
X112488096Y-107428571D01*
X112535715Y-107523810D01*
X112535715Y-107761905D01*
X112488096Y-107857143D01*
X112440477Y-107904762D01*
X112345239Y-107952381D01*
X112107143Y-107952381D01*
X112011905Y-107904762D01*
X111964286Y-107857143D01*
X125583334Y-78957143D02*
X125535715Y-79004762D01*
X125392858Y-79052381D01*
X125297620Y-79052381D01*
X125154762Y-79004762D01*
X125059524Y-78909524D01*
X125011905Y-78814286D01*
X124964286Y-78623810D01*
X124964286Y-78480952D01*
X125011905Y-78290476D01*
X125059524Y-78195238D01*
X125154762Y-78100000D01*
X125297620Y-78052381D01*
X125392858Y-78052381D01*
X125535715Y-78100000D01*
X125583334Y-78147619D01*
X125916667Y-78052381D02*
X126535715Y-78052381D01*
X126202381Y-78433333D01*
X126345239Y-78433333D01*
X126440477Y-78480952D01*
X126488096Y-78528571D01*
X126535715Y-78623810D01*
X126535715Y-78861905D01*
X126488096Y-78957143D01*
X126440477Y-79004762D01*
X126345239Y-79052381D01*
X126059524Y-79052381D01*
X125964286Y-79004762D01*
X125916667Y-78957143D01*
X117583334Y-108107143D02*
X117535715Y-108154762D01*
X117392858Y-108202381D01*
X117297620Y-108202381D01*
X117154762Y-108154762D01*
X117059524Y-108059524D01*
X117011905Y-107964286D01*
X116964286Y-107773810D01*
X116964286Y-107630952D01*
X117011905Y-107440476D01*
X117059524Y-107345238D01*
X117154762Y-107250000D01*
X117297620Y-107202381D01*
X117392858Y-107202381D01*
X117535715Y-107250000D01*
X117583334Y-107297619D01*
X117964286Y-107297619D02*
X118011905Y-107250000D01*
X118107143Y-107202381D01*
X118345239Y-107202381D01*
X118440477Y-107250000D01*
X118488096Y-107297619D01*
X118535715Y-107392857D01*
X118535715Y-107488095D01*
X118488096Y-107630952D01*
X117916667Y-108202381D01*
X118535715Y-108202381D01*
X120833334Y-86107143D02*
X120785715Y-86154762D01*
X120642858Y-86202381D01*
X120547620Y-86202381D01*
X120404762Y-86154762D01*
X120309524Y-86059524D01*
X120261905Y-85964286D01*
X120214286Y-85773810D01*
X120214286Y-85630952D01*
X120261905Y-85440476D01*
X120309524Y-85345238D01*
X120404762Y-85250000D01*
X120547620Y-85202381D01*
X120642858Y-85202381D01*
X120785715Y-85250000D01*
X120833334Y-85297619D01*
X121785715Y-86202381D02*
X121214286Y-86202381D01*
X121500000Y-86202381D02*
X121500000Y-85202381D01*
X121404762Y-85345238D01*
X121309524Y-85440476D01*
X121214286Y-85488095D01*
X93357143Y-86107143D02*
X93309524Y-86154762D01*
X93166667Y-86202381D01*
X93071429Y-86202381D01*
X92928571Y-86154762D01*
X92833333Y-86059524D01*
X92785714Y-85964286D01*
X92738095Y-85773810D01*
X92738095Y-85630952D01*
X92785714Y-85440476D01*
X92833333Y-85345238D01*
X92928571Y-85250000D01*
X93071429Y-85202381D01*
X93166667Y-85202381D01*
X93309524Y-85250000D01*
X93357143Y-85297619D01*
X94309524Y-86202381D02*
X93738095Y-86202381D01*
X94023809Y-86202381D02*
X94023809Y-85202381D01*
X93928571Y-85345238D01*
X93833333Y-85440476D01*
X93738095Y-85488095D01*
X95166667Y-85535714D02*
X95166667Y-86202381D01*
X94928571Y-85154762D02*
X94690476Y-85869048D01*
X95309524Y-85869048D01*
X102107143Y-86107143D02*
X102059524Y-86154762D01*
X101916667Y-86202381D01*
X101821429Y-86202381D01*
X101678571Y-86154762D01*
X101583333Y-86059524D01*
X101535714Y-85964286D01*
X101488095Y-85773810D01*
X101488095Y-85630952D01*
X101535714Y-85440476D01*
X101583333Y-85345238D01*
X101678571Y-85250000D01*
X101821429Y-85202381D01*
X101916667Y-85202381D01*
X102059524Y-85250000D01*
X102107143Y-85297619D01*
X103059524Y-86202381D02*
X102488095Y-86202381D01*
X102773809Y-86202381D02*
X102773809Y-85202381D01*
X102678571Y-85345238D01*
X102583333Y-85440476D01*
X102488095Y-85488095D01*
X103678571Y-85202381D02*
X103773810Y-85202381D01*
X103869048Y-85250000D01*
X103916667Y-85297619D01*
X103964286Y-85392857D01*
X104011905Y-85583333D01*
X104011905Y-85821429D01*
X103964286Y-86011905D01*
X103916667Y-86107143D01*
X103869048Y-86154762D01*
X103773810Y-86202381D01*
X103678571Y-86202381D01*
X103583333Y-86154762D01*
X103535714Y-86107143D01*
X103488095Y-86011905D01*
X103440476Y-85821429D01*
X103440476Y-85583333D01*
X103488095Y-85392857D01*
X103535714Y-85297619D01*
X103583333Y-85250000D01*
X103678571Y-85202381D01*
X111833334Y-86107143D02*
X111785715Y-86154762D01*
X111642858Y-86202381D01*
X111547620Y-86202381D01*
X111404762Y-86154762D01*
X111309524Y-86059524D01*
X111261905Y-85964286D01*
X111214286Y-85773810D01*
X111214286Y-85630952D01*
X111261905Y-85440476D01*
X111309524Y-85345238D01*
X111404762Y-85250000D01*
X111547620Y-85202381D01*
X111642858Y-85202381D01*
X111785715Y-85250000D01*
X111833334Y-85297619D01*
X112690477Y-85535714D02*
X112690477Y-86202381D01*
X112452381Y-85154762D02*
X112214286Y-85869048D01*
X112833334Y-85869048D01*
X109791905Y-136202381D02*
X109791905Y-135202381D01*
X110172858Y-135202381D01*
X110268096Y-135250000D01*
X110315715Y-135297619D01*
X110363334Y-135392857D01*
X110363334Y-135535714D01*
X110315715Y-135630952D01*
X110268096Y-135678571D01*
X110172858Y-135726190D01*
X109791905Y-135726190D01*
X111220477Y-135202381D02*
X111030000Y-135202381D01*
X110934762Y-135250000D01*
X110887143Y-135297619D01*
X110791905Y-135440476D01*
X110744286Y-135630952D01*
X110744286Y-136011905D01*
X110791905Y-136107143D01*
X110839524Y-136154762D01*
X110934762Y-136202381D01*
X111125239Y-136202381D01*
X111220477Y-136154762D01*
X111268096Y-136107143D01*
X111315715Y-136011905D01*
X111315715Y-135773810D01*
X111268096Y-135678571D01*
X111220477Y-135630952D01*
X111125239Y-135583333D01*
X110934762Y-135583333D01*
X110839524Y-135630952D01*
X110791905Y-135678571D01*
X110744286Y-135773810D01*
X102773809Y-109226190D02*
X102773809Y-109702381D01*
X102440476Y-108702381D02*
X102773809Y-109226190D01*
X103107143Y-108702381D01*
X103964286Y-109702381D02*
X103392857Y-109702381D01*
X103678571Y-109702381D02*
X103678571Y-108702381D01*
X103583333Y-108845238D01*
X103488095Y-108940476D01*
X103392857Y-108988095D01*
X124333334Y-110857143D02*
X124285715Y-110904762D01*
X124142858Y-110952381D01*
X124047620Y-110952381D01*
X123904762Y-110904762D01*
X123809524Y-110809524D01*
X123761905Y-110714286D01*
X123714286Y-110523810D01*
X123714286Y-110380952D01*
X123761905Y-110190476D01*
X123809524Y-110095238D01*
X123904762Y-110000000D01*
X124047620Y-109952381D01*
X124142858Y-109952381D01*
X124285715Y-110000000D01*
X124333334Y-110047619D01*
X124666667Y-109952381D02*
X125333334Y-109952381D01*
X124904762Y-110952381D01*
X126666667Y-110428571D02*
X126333333Y-110428571D01*
X126333333Y-110952381D02*
X126333333Y-109952381D01*
X126809524Y-109952381D01*
X127523810Y-110428571D02*
X127666667Y-110476190D01*
X127714286Y-110523810D01*
X127761905Y-110619048D01*
X127761905Y-110761905D01*
X127714286Y-110857143D01*
X127666667Y-110904762D01*
X127571429Y-110952381D01*
X127190476Y-110952381D01*
X127190476Y-109952381D01*
X127523810Y-109952381D01*
X127619048Y-110000000D01*
X127666667Y-110047619D01*
X127714286Y-110142857D01*
X127714286Y-110238095D01*
X127666667Y-110333333D01*
X127619048Y-110380952D01*
X127523810Y-110428571D01*
X127190476Y-110428571D01*
X128714286Y-110952381D02*
X128142857Y-110952381D01*
X128428571Y-110952381D02*
X128428571Y-109952381D01*
X128333333Y-110095238D01*
X128238095Y-110190476D01*
X128142857Y-110238095D01*
M02*
